<?xml version="1.0" standalone="no"?><!DOCTYPE svg PUBLIC "-//W3C//DTD SVG 1.1//EN" "http://www.w3.org/Graphics/SVG/1.1/DTD/svg11.dtd"><svg t="1615843749121" class="icon" viewBox="0 0 1024 1024" version="1.1" xmlns="http://www.w3.org/2000/svg" p-id="3306" xmlns:xlink="http://www.w3.org/1999/xlink" width="200" height="200"><defs><style type="text/css"></style></defs><path d="M900.560633 635.071363a219.541226 219.541226 0 1 1-219.436082-219.541226A219.436082 219.436082 0 0 1 900.560633 635.071363z" fill="#FFD800" p-id="3307" data-spm-anchor-id="a313x.7781069.0.i4"></path><path d="M336.461649 771.864052h-1.47202c-15.876784-2.628607-32.174145-5.782935-48.366362-9.252696a8.726974 8.726974 0 0 1-6.729233-7.254954c-24.814047-169.807988 8.306397-333.307321 54.149297-529.50652a8.726974 8.726974 0 0 1 7.254954-6.624089c12.8276-1.892597 25.234624-3.574905 37.326214-5.046925a8.726974 8.726974 0 0 1 2.102886 17.348804c-10.514427 1.156587-21.028853 2.628607-31.54328 4.100627C304.918369 424.887976 273.37509 583.655817 295.875963 746.524284c13.879043 2.944039 27.86323 5.572646 42.057706 7.780675a8.937263 8.937263 0 0 1 7.254954 10.514427 8.832118 8.832118 0 0 1-8.726974 7.044666zM688.589794 771.758907a8.62183 8.62183 0 0 1-8.516686-7.254954 8.726974 8.726974 0 0 1 7.14981-10.514426c13.248177-2.20803 27.12722-4.731492 41.426841-7.780676 23.026594-166.758805-13.668754-326.683232-56.988192-511.211418-9.568128-1.261731-18.820823-2.523462-27.968375-3.574905a8.726974 8.726974 0 0 1 2.102886-17.348804c11.145292 1.366875 22.500873 2.838895 34.171886 4.521204a8.726974 8.726974 0 0 1 7.254954 6.624088l0.630866 2.838895c44.37088 189.259678 82.538248 353.49502 57.19848 527.088203a8.726974 8.726974 0 0 1-6.834377 7.254954c-16.612794 3.574905-32.805011 6.624089-48.156074 9.252695z" fill="" p-id="3308"></path><path d="M512.473149 805.720505A1018.742787 1018.742787 0 0 1 336.461649 789.843721a8.726974 8.726974 0 0 1-7.14981-7.570387 592.487935 592.487935 0 0 1 26.916932-247.089023 8.937263 8.937263 0 0 1 7.044666-6.098368 965.119211 965.119211 0 0 1 294.403943 0 8.306397 8.306397 0 0 1 7.044665 5.993223c28.59924 89.057193 38.903378 172.436595 30.80727 247.614745a8.832118 8.832118 0 0 1-7.14981 7.675531 1019.899374 1019.899374 0 0 1-175.906356 15.351063z m-166.758805-31.543279a959.125988 959.125988 0 0 0 333.307321 0 586.810145 586.810145 0 0 0-29.019817-228.793922 949.55786 949.55786 0 0 0-278.842591 0.525722 578.293459 578.293459 0 0 0-25.444913 227.847623z" fill="" p-id="3309"></path><path d="M360.224253 768.920012a8.62183 8.62183 0 0 1-8.62183-7.990964v-4.416059a8.62183 8.62183 0 0 1 8.096109-9.252695 8.726974 8.726974 0 0 1 9.252695 7.990964v4.310915a8.832118 8.832118 0 0 1-7.990964 9.357839z m304.918369-18.084813a8.62183 8.62183 0 0 1-8.411541-8.937263v-4.20577a8.832118 8.832118 0 0 1 8.726974-8.62183 8.726974 8.726974 0 0 1 8.62183 8.832118v4.416059a8.726974 8.726974 0 0 1-8.937263 8.516686z m-306.390389-12.301879a8.726974 8.726974 0 0 1-8.726974-8.62183V725.495431a8.726974 8.726974 0 0 1 8.726974-8.726974 8.832118 8.832118 0 0 1 9.252696 8.726974v4.310915a8.726974 8.726974 0 0 1-8.62183 8.832118z m306.180101-18.189958a8.62183 8.62183 0 0 1-8.726974-8.306397v-4.310915a8.726974 8.726974 0 0 1 17.453948-0.841154v4.416059a8.726974 8.726974 0 0 1-8.411541 9.042407z m-305.654379-12.301879a8.726974 8.726974 0 0 1-8.306397-9.042407v-4.521204a8.937263 8.937263 0 0 1 9.147551-8.201252 8.832118 8.832118 0 0 1 8.201252 9.252695v4.205771a8.726974 8.726974 0 0 1-9.042406 8.306397zM662.408872 689.956669a8.62183 8.62183 0 0 1-8.62183-7.780676v-4.310914a8.62183 8.62183 0 0 1 17.243659-1.892597v4.416059a8.832118 8.832118 0 0 1-7.780675 9.568128z m-300.817744-12.196735h-0.841154a8.62183 8.62183 0 0 1-7.780675-9.568128v-3.890338a8.832118 8.832118 0 0 1 9.568128-7.990964 8.516685 8.516685 0 0 1 7.780675 9.462984v4.205771a8.62183 8.62183 0 0 1-8.726974 7.780675z m297.347983-17.979669a8.832118 8.832118 0 0 1-8.62183-7.360099l-0.630866-4.310915a8.726974 8.726974 0 1 1 17.138516-2.73375l0.73601 4.310914a8.726974 8.726974 0 0 1-7.254955 10.514427z m-293.3525-12.301879h-1.366876a8.62183 8.62183 0 0 1-7.254954-9.883561l0.73601-4.416059a8.726974 8.726974 0 0 1 9.988705-7.14981 8.62183 8.62183 0 0 1 7.14981 9.988705l-0.630866 4.310915a8.832118 8.832118 0 0 1-8.621829 7.14981z m287.990142-17.769381a8.62183 8.62183 0 0 1-8.516685-6.939521l-0.841154-4.205771a8.62183 8.62183 0 0 1 6.729233-10.514427 8.832118 8.832118 0 0 1 10.514426 6.729233l0.841154 4.310915a8.726974 8.726974 0 0 1-6.729233 10.514427zM371.159257 617.617415h-1.787453a8.62183 8.62183 0 0 1-6.729233-10.514427l0.841154-4.310915a8.726974 8.726974 0 0 1 10.514427-6.624089 8.62183 8.62183 0 0 1 6.624088 10.514427l-0.841154 4.205771a8.832118 8.832118 0 0 1-8.621829 6.729233z m275.688263-17.559093a8.832118 8.832118 0 0 1-8.516685-6.624089l-1.051443-4.100626a8.726974 8.726974 0 0 1 16.928227-4.416059l1.051443 4.310915a8.726974 8.726974 0 0 1-6.308656 10.514426zM378.519355 587.966732h-2.208029a8.726974 8.726974 0 0 1-6.308656-10.514427l1.156587-4.20577a8.726974 8.726974 0 1 1 16.823082 4.416059l-1.051443 4.20577a8.832118 8.832118 0 0 1-8.411541 6.098368z m260.652634-17.348804a14.089332 14.089332 0 0 1-10.514427-12.8276 8.62183 8.62183 0 0 1 9.778417-7.465243h1.577164a8.726974 8.726974 0 0 1 7.044666 6.098367l0.841154 2.838895a8.726974 8.726974 0 0 1-5.888079 10.514427z m-245.301571-3.574905a8.726974 8.726974 0 0 1-1.156587-17.348804l4.416059-0.525721a8.62183 8.62183 0 0 1 9.673273 7.570387 8.62183 8.62183 0 0 1-7.570388 9.673272l-4.20577 0.525722z m217.122908-2.418318h-5.362358a8.516685 8.516685 0 0 1-7.780675-9.462984 8.726974 8.726974 0 0 1 9.462984-7.88582h4.416059a8.726974 8.726974 0 0 1 7.780675 9.568128 8.832118 8.832118 0 0 1-8.937262 7.780676z m-187.261937-0.946299a8.62183 8.62183 0 0 1-8.621829-7.885819 8.62183 8.62183 0 0 1 7.885819-9.462984h4.310915a8.516685 8.516685 0 0 1 9.462984 7.88582 8.726974 8.726974 0 0 1-7.88582 9.462983h-4.310915z m156.559811-1.787452h-4.94178a8.726974 8.726974 0 0 1-8.096109-9.35784 8.62183 8.62183 0 0 1 9.252696-7.990964h4.416059a8.726974 8.726974 0 0 1-0.630866 17.348804z m-126.173118-0.630866a8.726974 8.726974 0 0 1 0-17.348803h4.416059a8.937263 8.937263 0 0 1 9.147551 8.201252 8.516685 8.516685 0 0 1-8.201253 9.147551h-4.310914z m95.681281-1.051442h-4.310914a8.726974 8.726974 0 0 1-8.411542-9.042407 8.411541 8.411541 0 0 1 9.042407-8.306397h4.416059a8.726974 8.726974 0 0 1 0 17.453948z m-65.189444 0a8.726974 8.726974 0 0 1 0-17.453948h4.416059a8.726974 8.726974 0 1 1 0 17.348803h-4.310915z m34.802752 0H515.2069a8.726974 8.726974 0 0 1 0-17.453948h4.416059a8.726974 8.726974 0 1 1 0 17.453948zM512.052572 415.635281c-78.017045 0-141.524181-84.115412-141.524181-188.313379a250.45364 250.45364 0 0 1 5.572646-52.572133 8.832118 8.832118 0 0 1 7.465243-6.834377 990.879556 990.879556 0 0 1 256.86744 0 8.832118 8.832118 0 0 1 7.465243 6.834377 243.829551 243.829551 0 0 1 5.67779 52.572133c0 103.77739-63.507136 188.313379-141.524181 188.313379z m-120.179895-231.317384a232.894548 232.894548 0 0 0-3.890338 43.004005c0 94.629839 55.621316 170.859431 124.070233 170.859431s124.070233-76.650169 124.070233-170.859431a232.894548 232.894548 0 0 0-3.995482-43.004005 967.327241 967.327241 0 0 0-240.254646 0z" fill="" p-id="3310"></path><path d="M512.893726 393.870418h-5.67779a8.62183 8.62183 0 0 1-8.201253-9.147551 8.937263 8.937263 0 0 1 9.147551-8.201253h8.516686a8.937263 8.937263 0 0 1 9.252695 8.201253 8.726974 8.726974 0 0 1-8.096108 9.252695h-4.731492z m-30.596981-5.782935a8.411541 8.411541 0 0 1-3.154328-0.630865l-4.416059-1.787453a8.726974 8.726974 0 0 1-4.310915-11.565869 8.516685 8.516685 0 0 1 11.460725-4.310915l3.680049 1.47202a8.726974 8.726974 0 0 1-3.259472 16.823082z m60.247664 0a8.937263 8.937263 0 0 1-8.096108-5.467501 8.832118 8.832118 0 0 1 4.836636-11.355581 26.496355 26.496355 0 0 0 3.574905-1.577164 8.726974 8.726974 0 0 1 11.565869 4.20577 8.62183 8.62183 0 0 1-4.205771 11.56587l-4.416059 1.997741a8.516685 8.516685 0 0 1-3.259472 0.315433z m-86.218297-15.245918a8.516685 8.516685 0 0 1-5.572647-2.102885l-3.574905-3.049184a8.726974 8.726974 0 0 1 11.671014-12.932745 36.48506 36.48506 0 0 0 3.049184 2.628607 8.832118 8.832118 0 0 1 0.736009 11.986446 9.042407 9.042407 0 0 1-6.308655 3.154328z m112.083786-0.630866a8.726974 8.726974 0 0 1-5.572646-15.351062l2.94404-2.628607a8.726974 8.726974 0 1 1 11.776157 12.8276l-3.574905 3.154328a8.411541 8.411541 0 0 1-5.572646 1.682308z m-132.902351-21.028853a8.62183 8.62183 0 0 1-6.939522-3.574905l-2.73375-3.785193a8.726974 8.726974 0 0 1 2.208029-12.091591 8.62183 8.62183 0 0 1 12.091591 2.20803l2.418318 3.364616a8.726974 8.726974 0 0 1-1.787453 12.091591 9.042407 9.042407 0 0 1-5.257213 0.946298zM588.807886 349.604682a8.096108 8.096108 0 0 1-5.046925-1.682308 8.726974 8.726974 0 0 1-1.997741-12.196735l2.418318-3.364616a8.726974 8.726974 0 1 1 14.29962 9.883561l-2.628606 3.680049a8.516685 8.516685 0 0 1-7.044666 3.680049z m-168.86169-25.444912a8.726974 8.726974 0 0 1-7.780676-4.94178c-0.73601-1.366875-1.366875-2.838895-1.997741-4.205771a8.726974 8.726974 0 0 1 15.981928-7.044666 39.218811 39.218811 0 0 0 1.682309 3.680049 8.726974 8.726974 0 0 1-4.100627 11.671014 9.883561 9.883561 0 0 1-3.785193 0.841154z m184.528185-0.841154a8.201253 8.201253 0 0 1-3.785193-0.841154 8.62183 8.62183 0 0 1-4.100627-11.565869l1.682309-3.785194a8.726974 8.726974 0 0 1 15.981928 7.044666l-1.892597 4.20577a8.62183 8.62183 0 0 1-7.88582 4.941781z m-195.2529-27.652942a8.62183 8.62183 0 0 1-8.306397-6.308656L399.548208 284.940959a8.726974 8.726974 0 0 1 6.203512-10.514427 8.62183 8.62183 0 0 1 10.514426 6.203512l1.156587 3.995482a8.832118 8.832118 0 0 1-5.993223 10.514427 9.568128 9.568128 0 0 1-2.208029 0.525721zM615.093952 294.403943a9.568128 9.568128 0 0 1-2.418318 0 8.726974 8.726974 0 0 1-5.993223-10.514427l1.051443-3.995482a8.726974 8.726974 0 0 1 16.928226 4.416059l-1.261731 4.41606a8.62183 8.62183 0 0 1-8.306397 5.67779z m-212.075983-28.494096a8.726974 8.726974 0 0 1-8.62183-7.570387l-0.630865-4.521204A8.726974 8.726974 0 1 1 411.114077 252.346237v4.20577a8.726974 8.726974 0 0 1-7.465242 9.778417z m218.174351-0.946298H620.351165a8.726974 8.726974 0 0 1-7.465242-9.778417v-4.100626a8.832118 8.832118 0 0 1 9.673272-7.675532 8.726974 8.726974 0 0 1 7.675531 9.568128l-0.525721 4.521204a8.726974 8.726974 0 0 1-8.516685 7.465243z m-220.172092-29.440395a8.832118 8.832118 0 0 1-8.726974-8.832118v-4.416059a8.726974 8.726974 0 0 1 8.832118-8.516686 8.62183 8.62183 0 0 1 8.516686 8.832119v4.20577a8.832118 8.832118 0 0 1-8.62183 8.726974z m222.064688-0.946298a8.726974 8.726974 0 0 1-8.726974-8.62183v-4.20577a8.726974 8.726974 0 0 1 17.453948 0v4.521203a8.62183 8.62183 0 0 1-8.621829 8.726974zM403.123113 205.031317h-1.261731a8.726974 8.726974 0 0 1-7.360099-9.778416 8.726974 8.726974 0 0 1 7.675532-7.14981h4.100626a8.62183 8.62183 0 0 1 1.892597 17.243659h-2.944039z m217.017764 0h-0.946299l-4.20577-0.525721a8.62183 8.62183 0 0 1 1.682308-17.243659h4.416059a8.832118 8.832118 0 0 1 7.780676 9.568128 8.726974 8.726974 0 0 1-8.516686 7.990964z m-186.84136-2.733751a8.62183 8.62183 0 0 1-8.621829-7.990964 8.726974 8.726974 0 0 1 7.88582-9.462984h4.100626a8.832118 8.832118 0 0 1 9.462984 7.990965 8.516685 8.516685 0 0 1-7.780676 9.357839h-4.310915z m156.559811 0h-5.362357a8.726974 8.726974 0 0 1-7.990964-9.357839 8.832118 8.832118 0 0 1 9.357839-8.096109h4.310915a8.726974 8.726974 0 0 1-0.630865 17.348804z m-126.173118-2.523462a8.726974 8.726974 0 0 1 0-17.348804h4.416059a8.411541 8.411541 0 0 1 9.042407 8.201253 8.62183 8.62183 0 0 1-8.201253 9.147551h-4.416059z m95.786426 0h-4.416059a8.726974 8.726974 0 0 1 0.841154-17.453948h4.416059a8.726974 8.726974 0 0 1 8.201253 9.147551 8.62183 8.62183 0 0 1-9.042407 8.306397zM494.178047 198.93295a8.726974 8.726974 0 0 1 0-17.453948h4.521203a8.726974 8.726974 0 0 1 8.726974 8.516685 8.62183 8.62183 0 0 1-8.516685 8.832119H494.178047z m34.802752 0h-4.416059a8.726974 8.726974 0 1 1 0-17.348804h4.521203a8.726974 8.726974 0 0 1 0 17.453948zM526.352192 450.648321h-28.704384a8.726974 8.726974 0 0 1-8.62183-7.465243L483.66362 406.172297a8.726974 8.726974 0 1 1 17.24366-2.418318l4.205771 29.545538h13.56361l4.20577-29.545538a8.726974 8.726974 0 1 1 17.24366 2.418318l-5.257213 37.010781a8.62183 8.62183 0 0 1-8.516686 7.465243zM783.850498 732.960674h-43.740014a8.726974 8.726974 0 1 1 0-17.348804h35.854194a987.725228 987.725228 0 0 0-9.35784-233.104836h-36.379915a8.726974 8.726974 0 1 1 0-17.348804h43.950303a8.62183 8.62183 0 0 1 8.516685 7.360098 1003.181435 1003.181435 0 0 1 9.883561 252.346237 8.726974 8.726974 0 0 1-8.726974 8.096109zM283.889516 732.960674h-43.319437a8.726974 8.726974 0 0 1-8.726974-7.780676 1028.310915 1028.310915 0 0 1 7.990964-252.346237 8.516685 8.516685 0 0 1 8.62183-7.465243h43.845159a8.726974 8.726974 0 1 1 0 17.348804h-36.274772a1012.328987 1012.328987 0 0 0-7.570387 233.104836H283.889516a8.726974 8.726974 0 1 1 0 17.348804zM575.980285 178.745251a8.726974 8.726974 0 0 1-8.726974-8.726974v-16.823082a27.547798 27.547798 0 0 0-27.547797-27.652942h-55.411028a27.652942 27.652942 0 0 0-27.547797 27.652942v17.243659a8.726974 8.726974 0 0 1-17.453948 0v-17.243659a45.001746 45.001746 0 0 1 45.001745-45.001746h55.411028a45.001746 45.001746 0 0 1 45.001745 45.001746v17.243659a8.726974 8.726974 0 0 1-8.726974 8.306397z m-21.764862-1.261731a8.726974 8.726974 0 0 1-8.726974-8.62183v-15.666495a5.888079 5.888079 0 0 0-5.782935-5.888079h-55.411028a5.993223 5.993223 0 0 0-5.782935 5.888079v15.981928a8.726974 8.726974 0 1 1-17.453948 0v-15.981928a23.552315 23.552315 0 0 1 23.236883-23.236883h55.411028a23.552315 23.552315 0 0 1 23.236883 23.236883v16.087072a8.726974 8.726974 0 0 1-8.726974 8.62183zM215.650888 761.454769h-4.310915a8.726974 8.726974 0 0 1 0-17.453948h4.310915a8.726974 8.726974 0 1 1 0 17.453948z m-60.878529 0h-4.41606a8.726974 8.726974 0 0 1 0-17.453948h4.41606a8.726974 8.726974 0 1 1 0 17.453948zM268.959031 312.383612h-4.310915a8.726974 8.726974 0 1 1 0-17.453948h4.310915a8.726974 8.726974 0 0 1 0 17.453948z m-60.87853 0h-4.416059a8.726974 8.726974 0 0 1 0-17.453948h4.416059a8.726974 8.726974 0 0 1 0 17.453948zM807.402813 846.306192h-4.310914a8.726974 8.726974 0 0 1 0-17.453948h4.310914a8.726974 8.726974 0 1 1 0 17.453948z m-60.878529 0h-4.416059a8.726974 8.726974 0 1 1 0-17.453948H746.524284a8.726974 8.726974 0 0 1 0 17.453948zM774.177226 149.725434h-4.41606a8.726974 8.726974 0 0 1 0-17.348804h4.41606a8.726974 8.726974 0 1 1 0 17.348804z m-60.983674 0h-4.310915a8.726974 8.726974 0 1 1 0-17.348804h4.310915a8.726974 8.726974 0 1 1 0 17.348804zM274.531677 846.306192H151.933463a8.726974 8.726974 0 0 1 0-17.453948h122.598214a8.726974 8.726974 0 1 1 0 17.453948zM545.488449 846.306192h-4.41606a8.726974 8.726974 0 0 1 0-17.453948h4.41606a8.726974 8.726974 0 1 1 0 17.453948z m-60.983674 0h-4.310915a8.726974 8.726974 0 1 1 0-17.453948h4.310915a8.726974 8.726974 0 1 1 0 17.453948z m-60.87853 0h-4.416059a8.726974 8.726974 0 1 1 0-17.453948h4.416059a8.726974 8.726974 0 0 1 0 17.453948z m-60.983674 0h-4.310915a8.726974 8.726974 0 1 1 0-17.453948h4.310915a8.726974 8.726974 0 1 1 0 17.453948z" fill="" p-id="3311"></path></svg>